<svg width="216" height="93" viewBox="0 0 216 93" fill="none" xmlns="http://www.w3.org/2000/svg">
<path d="M83.6263 49.5044C82.741 49.5044 81.9738 49.3274 81.2656 48.9733C80.5574 48.6192 80.2033 48.088 80.2033 47.3798V23.2421H74.0656C73.4164 23.2421 72.8853 22.9471 72.5312 22.2979C72.1771 21.6487 72 20.9405 72 20.1143C72 19.3471 72.1771 18.6979 72.4722 18.0487C72.8263 17.3995 73.3574 17.0454 74.0656 17.0454H93.305C94.0722 17.0454 94.6033 17.3995 94.8984 18.0487C95.2525 18.6979 95.3706 19.4061 95.3706 20.1143C95.3706 20.9405 95.1935 21.7077 94.8394 22.2979C94.4853 22.9471 93.9542 23.2421 93.305 23.2421H87.1673V47.3798C87.1673 48.088 86.8131 48.6192 86.1049 48.9733C85.2787 49.3274 84.4525 49.5044 83.6263 49.5044Z" fill="white"/>
<path d="M117.147 49.7404C116.675 49.7404 116.262 49.6223 115.908 49.4453C115.495 49.2682 115.2 48.9141 114.964 48.442L108.885 36.5797H105.934V47.3207C105.934 48.0289 105.58 48.56 104.872 48.9141C104.164 49.2682 103.338 49.4453 102.511 49.4453C101.685 49.4453 100.859 49.2682 100.151 48.9141C99.4425 48.56 99.0884 48.0289 99.0884 47.3207V19.0518C99.0884 18.4617 99.2654 17.9895 99.6785 17.5764C100.092 17.1633 100.564 16.9272 101.213 16.9272H110.42C112.485 16.9272 114.315 17.2223 115.967 17.8125C117.62 18.4027 118.918 19.3469 119.921 20.7633C120.924 22.1207 121.397 24.0682 121.397 26.4879C121.397 28.1404 121.16 29.5567 120.688 30.7961C120.216 31.9764 119.567 32.9797 118.8 33.7469C117.974 34.5141 117.029 35.1043 116.026 35.5174L121.456 45.3731C121.574 45.4912 121.574 45.6092 121.633 45.7863C121.633 45.9633 121.692 46.0813 121.692 46.1994C121.692 46.7895 121.456 47.3207 121.043 47.9108C120.57 48.501 120.039 48.9141 119.39 49.2682C118.505 49.5633 117.856 49.7404 117.147 49.7404ZM105.875 31.2682H110.301C111.541 31.2682 112.544 30.9732 113.252 30.383C113.961 29.7928 114.315 28.6715 114.315 27.1371C114.315 25.5437 113.961 24.4814 113.252 23.8912C112.544 23.301 111.541 23.0059 110.301 23.0059H105.875V31.2682Z" fill="white"/>
<path d="M130.19 49.5044C129.305 49.5044 128.538 49.3274 127.829 48.9733C127.121 48.6192 126.767 48.088 126.767 47.3798V19.111C126.767 18.3438 127.121 17.8126 127.829 17.5176C128.538 17.2225 129.364 17.0454 130.19 17.0454C131.016 17.0454 131.843 17.2225 132.551 17.5176C133.259 17.8717 133.613 18.4028 133.613 19.111V47.3798C133.613 48.088 133.259 48.6192 132.551 48.9733C131.843 49.3274 131.075 49.5044 130.19 49.5044Z" fill="white"/>
<path d="M143.292 49.5044C142.525 49.5044 141.876 49.3274 141.226 48.9733C140.577 48.6192 140.282 48.088 140.282 47.3798V19.111C140.282 18.3438 140.636 17.8126 141.344 17.5176C142.053 17.2225 142.879 17.0454 143.705 17.0454C144.531 17.0454 145.358 17.2225 146.066 17.5176C146.774 17.8717 147.128 18.4028 147.128 19.111V43.4257H157.279C157.987 43.4257 158.459 43.7208 158.813 44.37C159.167 45.0192 159.285 45.6684 159.285 46.4356C159.285 47.2028 159.108 47.852 158.813 48.5011C158.459 49.1503 157.987 49.4454 157.279 49.4454H143.292V49.5044Z" fill="white"/>
<path d="M166.485 49.5044C165.6 49.5044 164.833 49.3274 164.124 48.9733C163.416 48.6192 163.062 48.088 163.062 47.3798V19.111C163.062 18.3438 163.416 17.8126 164.124 17.5176C164.833 17.2225 165.659 17.0454 166.485 17.0454C167.311 17.0454 168.137 17.2225 168.846 17.5176C169.554 17.8717 169.908 18.4028 169.908 19.111V30.029H178.76V19.111C178.76 18.3438 179.114 17.8126 179.823 17.5176C180.531 17.2225 181.357 17.0454 182.183 17.0454C183.069 17.0454 183.836 17.2225 184.544 17.5176C185.252 17.8717 185.606 18.4028 185.606 19.111V47.3798C185.606 48.088 185.252 48.6192 184.544 48.9733C183.836 49.3274 183.01 49.5044 182.183 49.5044C181.298 49.5044 180.531 49.3274 179.823 48.9733C179.114 48.6192 178.76 48.088 178.76 47.3798V35.3405H169.908V47.3798C169.908 48.088 169.554 48.6192 168.846 48.9733C168.137 49.3274 167.37 49.5044 166.485 49.5044Z" fill="white"/>
<path d="M194.577 49.5046C193.928 49.5046 193.279 49.3866 192.57 49.1505C191.862 48.9144 191.272 48.5603 190.8 48.1472C190.328 47.7341 190.092 47.262 190.092 46.6718C190.092 46.5538 190.092 46.4357 190.21 46.1997L198.472 19.0521C198.708 18.2849 199.298 17.6948 200.184 17.3407C201.069 16.9866 202.013 16.7505 203.016 16.7505C204.079 16.7505 205.023 16.9275 205.908 17.3407C206.793 17.7538 207.325 18.2849 207.561 19.0521L215.882 46.1997C215.941 46.4357 216 46.6128 216 46.6718C216 47.203 215.764 47.6751 215.292 48.1472C214.82 48.5603 214.229 48.9144 213.58 49.1505C212.872 49.3866 212.223 49.5046 211.574 49.5046C210.984 49.5046 210.511 49.3866 210.098 49.2095C209.685 49.0325 209.449 48.6783 209.272 48.2062L207.738 42.6587H198.354L196.82 48.2062C196.702 48.6783 196.407 49.0325 195.993 49.2095C195.639 49.3866 195.167 49.5046 194.577 49.5046ZM199.77 37.2882H206.262L203.016 25.3669L199.77 37.2882Z" fill="white"/>
<path d="M52.2887 92.0556C51.3444 92.0556 50.6362 91.8195 50.1051 91.4064C49.5739 90.9933 49.2788 90.5211 49.2788 89.931V61.6031C49.2788 61.0129 49.5739 60.5408 50.1051 60.1277C50.6362 59.7146 51.4035 59.4785 52.2887 59.4785H60.1378C62.2034 59.4785 64.0329 59.8326 65.6854 60.4818C67.3379 61.19 68.6362 62.2523 69.6395 63.8457C70.5837 65.3801 71.1149 67.4457 71.1149 69.9834V81.4916C71.1149 84.0293 70.6427 86.0949 69.6395 87.6293C68.6952 89.1638 67.3379 90.2851 65.6854 90.9932C64.0329 91.7014 62.1444 91.9965 60.1378 91.9965H52.2887V92.0556ZM56.2428 85.9769H60.1968C61.4362 85.9769 62.4395 85.6228 63.1477 84.9146C63.8559 84.2064 64.21 83.0851 64.21 81.5506V70.0424C64.21 68.508 63.8559 67.3867 63.1477 66.6785C62.4395 65.9703 61.4362 65.6162 60.1968 65.6162H56.2428V85.9769Z" fill="white"/>
<path d="M78.6693 92.0559C78.0201 92.0559 77.3709 91.9378 76.6627 91.7017C75.9545 91.4657 75.3644 91.1116 74.8922 90.6984C74.4201 90.2853 74.1841 89.8132 74.1841 89.223C74.1841 89.105 74.1841 88.987 74.3021 88.7509L82.5644 61.6034C82.8004 60.8362 83.3906 60.246 84.2759 59.8919C85.1611 59.5378 86.1054 59.3018 87.1087 59.3018C88.171 59.3018 89.1152 59.4788 90.0004 59.8919C90.8857 60.305 91.4169 60.8362 91.6529 61.6034L99.9742 88.7509C100.033 88.987 100.092 89.164 100.092 89.223C100.092 89.7542 99.8562 90.2263 99.3841 90.6984C98.9119 91.1116 98.3217 91.4657 97.6726 91.7017C96.9644 91.9378 96.3152 92.0559 95.6661 92.0559C95.0759 92.0559 94.6038 91.9378 94.1907 91.7608C93.7775 91.5837 93.5415 91.2296 93.3644 90.7575L91.83 85.2099H82.4464L80.912 90.7575C80.7939 91.2296 80.4988 91.5837 80.0857 91.7608C79.6726 91.9378 79.2005 92.0559 78.6693 92.0559ZM83.8628 79.8395H90.3546L87.1087 67.9181L83.8628 79.8395Z" fill="white"/>
<path d="M122.223 92.3508C121.22 92.3508 120.276 92.1737 119.391 91.7606C118.505 91.3475 117.915 90.8163 117.679 90.0491L109.358 62.9016C109.299 62.6655 109.24 62.4885 109.24 62.4295C109.24 61.8393 109.476 61.3672 109.948 60.954C110.42 60.5409 111.01 60.1868 111.718 59.9508C112.427 59.7147 113.076 59.5967 113.725 59.5967C114.315 59.5967 114.787 59.7147 115.2 59.8918C115.614 60.0688 115.909 60.4229 116.027 60.895L122.282 83.7344L128.479 60.895C128.656 60.4229 128.892 60.0688 129.305 59.8918C129.718 59.7147 130.191 59.5967 130.781 59.5967C131.43 59.5967 132.079 59.7147 132.787 59.9508C133.495 60.1868 134.027 60.5409 134.499 60.954C134.971 61.3672 135.207 61.8393 135.207 62.4295C135.207 62.4885 135.207 62.5475 135.207 62.6655C135.207 62.7835 135.148 62.8426 135.148 62.9606L126.886 90.1081C126.65 90.8753 126.118 91.4655 125.233 91.8196C124.23 92.1147 123.286 92.3508 122.223 92.3508Z" fill="white"/>
<path d="M142.997 92.0557C142.111 92.0557 141.344 91.8786 140.636 91.5245C139.928 91.1704 139.574 90.6393 139.574 89.9311V61.6623C139.574 60.895 139.928 60.3639 140.636 60.0688C141.344 59.7737 142.17 59.5967 142.997 59.5967C143.823 59.5967 144.649 59.7737 145.357 60.0688C146.066 60.4229 146.42 60.9541 146.42 61.6623V89.9311C146.42 90.6393 146.066 91.1704 145.357 91.5245C144.649 91.8786 143.823 92.0557 142.997 92.0557Z" fill="white"/>
<path d="M156.039 92.0556C155.095 92.0556 154.387 91.8195 153.856 91.4064C153.324 90.9933 153.029 90.5211 153.029 89.931V61.6031C153.029 61.0129 153.324 60.5408 153.856 60.1277C154.387 59.7146 155.154 59.4785 156.039 59.4785H163.888C165.954 59.4785 167.783 59.8326 169.436 60.4818C171.088 61.19 172.387 62.2523 173.39 63.8457C174.334 65.3801 174.865 67.4457 174.865 69.9834V81.4916C174.865 84.0293 174.393 86.0949 173.39 87.6293C172.446 89.1638 171.088 90.2851 169.436 90.9932C167.783 91.7014 165.895 91.9965 163.888 91.9965H156.039V92.0556ZM159.993 85.9769H163.947C165.187 85.9769 166.19 85.6228 166.898 84.9146C167.606 84.2064 167.96 83.0851 167.96 81.5506V70.0424C167.96 68.508 167.606 67.3867 166.898 66.6785C166.19 65.9703 165.187 65.6162 163.947 65.6162H159.993V85.9769Z" fill="white"/>
<path d="M182.42 92.0559C181.771 92.0559 181.121 91.9378 180.413 91.7017C179.705 91.4657 179.115 91.1116 178.643 90.6984C178.171 90.2853 177.935 89.8132 177.935 89.223C177.935 89.105 177.935 88.987 178.053 88.7509L186.315 61.6034C186.551 60.8362 187.141 60.246 188.026 59.8919C188.912 59.5378 189.856 59.3018 190.859 59.3018C191.921 59.3018 192.866 59.4788 193.751 59.8919C194.636 60.305 195.167 60.8362 195.403 61.6034L203.725 88.7509C203.784 88.987 203.843 89.164 203.843 89.223C203.843 89.7542 203.607 90.2263 203.135 90.6984C202.662 91.1116 202.072 91.4657 201.423 91.7017C200.715 91.9378 200.066 92.0559 199.417 92.0559C198.826 92.0559 198.354 91.9378 197.941 91.7608C197.528 91.5837 197.292 91.2296 197.115 90.7575L195.58 85.2099H186.197L184.662 90.7575C184.544 91.2296 184.249 91.5837 183.836 91.7608C183.482 91.9378 182.951 92.0559 182.42 92.0559ZM187.613 79.8395H194.105L190.859 67.9181L187.613 79.8395Z" fill="white"/>
<path d="M85.4752 0H58.1584C56.2198 0 54.6337 1.59027 54.6337 3.53393V42.466H30.8416C28.903 42.466 27.3168 44.0563 27.3168 46V84.9321H3.52475C1.58614 84.9321 0 86.5224 0 88.4661C0 90.4097 1.58614 92 3.52475 92H30.8416C32.7802 92 34.3663 90.4097 34.3663 88.4661V49.5339H58.1584C60.097 49.5339 61.6832 47.9436 61.6832 46V7.06786H85.4752C87.4139 7.06786 89 5.47759 89 3.53393C89 1.59027 87.4139 0 85.4752 0Z" fill="#F9B610"/>
</svg>
